<svg xmlns="http://www.w3.org/2000/svg" width="124" height="36" viewBox="0 0 124 36"><defs><linearGradient id="bg" x1="0%" y1="100%" x2="100%" y2="0%"><stop offset="0%" stop-color="#ffffff" stop-opacity="0.05"/><stop offset="100%" stop-color="#ffffff" stop-opacity="0"/></linearGradient></defs><rect x="0.5" y="0.5" width="123" height="35" rx="11.5" fill="#000000" stroke="rgba(255,255,255,0.15)" stroke-width="1"/><rect x="1" y="1" width="122" height="34" rx="11" fill="url(#bg)"/><g transform="translate(14, 9)"><path d="M8 12C8 9.79086 9.79086 8 12 8C14.2091 8 16 9.79086 16 12C16 14.2091 17.7909 16 20 16" stroke="white" stroke-width="2" stroke-linecap="round" fill="none"/><path d="M16 12C16 14.2091 14.2091 16 12 16C9.79086 16 8 14.2091 8 12C8 9.79086 6.20914 8 4 8" stroke="rgba(255,255,255,0.4)" stroke-width="2" stroke-linecap="round" fill="none"/></g><text x="40" y="24" fill="white" font-family="-apple-system, BlinkMacSystemFont, 'Segoe UI', Roboto, Helvetica, Arial, sans-serif" font-weight="300" font-size="20" letter-spacing="-1px">together</text></svg>